<svg width="180" height="32" viewBox="0 0 180 32" fill="none" xmlns="http://www.w3.org/2000/svg">
<g clip-path="url(#clip0_706_4146)">
<path fill-rule="evenodd" clip-rule="evenodd" d="M56.2183 23.2166C56.0045 23.7107 55.7137 24.1442 55.3453 24.5171C54.9769 24.8904 54.5438 25.1861 54.0472 25.4037C53.5502 25.6217 53.0188 25.7305 52.4519 25.7305C51.8774 25.7305 51.3421 25.6217 50.8451 25.4037C50.3481 25.1861 49.9176 24.893 49.5534 24.5226C49.1885 24.1535 48.8993 23.7205 48.6859 23.223C48.4726 22.7251 48.3657 22.196 48.3657 21.6362C48.3657 21.0764 48.4726 20.5478 48.6859 20.0499C48.8993 19.5528 49.1885 19.1189 49.5534 18.749C49.9176 18.3807 50.3481 18.0868 50.8451 17.8687C51.3421 17.6516 51.8774 17.5423 52.4519 17.5423C53.0188 17.5423 53.5502 17.6516 54.0472 17.8687C54.5438 18.0868 54.9769 18.3824 55.3453 18.7554C55.7137 19.1287 56.0045 19.5618 56.2183 20.0563C56.4317 20.5499 56.5386 21.0764 56.5386 21.6362C56.5386 22.196 56.4317 22.7234 56.2183 23.2166ZM57.7493 9.50565C57.4001 9.50565 57.1105 9.62085 56.8818 9.84997C56.6527 10.0799 56.5386 10.3692 56.5386 10.7187V16.5392C55.3585 15.5822 53.9966 15.1048 52.4519 15.1048C50.6513 15.1048 49.1144 15.7418 47.8419 17.0175C46.5685 18.2933 45.9327 19.8323 45.9327 21.6362C45.9327 23.4402 46.5685 24.98 47.8419 26.2553C49.1144 27.5306 50.6513 28.1676 52.4519 28.1676C54.2368 28.1676 55.7737 27.5306 57.0624 26.2553C58.3353 24.9954 58.9716 23.4555 58.9716 21.6362V10.7187C58.9716 10.3692 58.8532 10.0799 58.6168 9.84997C58.3796 9.62085 58.0909 9.50565 57.7493 9.50565Z" fill="white"/>
<path fill-rule="evenodd" clip-rule="evenodd" d="M70.52 23.2166C70.3062 23.7107 70.0145 24.1442 69.6461 24.5171C69.2777 24.8905 68.8446 25.1861 68.3484 25.4037C67.8515 25.6218 67.32 25.7306 66.7531 25.7306C66.1786 25.7306 65.6433 25.6218 65.1472 25.4037C64.6502 25.1861 64.2192 24.893 63.8542 24.5227C63.4892 24.1536 63.2005 23.7205 62.9867 23.223C62.7734 22.7251 62.6665 22.1961 62.6665 21.6363C62.6665 21.0765 62.7734 20.5478 62.9867 20.0499C63.2005 19.5529 63.4892 19.1189 63.8542 18.749C64.2192 18.3808 64.6502 18.0868 65.1472 17.8688C65.6433 17.6516 66.1786 17.5424 66.7531 17.5424C67.32 17.5424 67.8515 17.6516 68.3484 17.8688C68.8446 18.0868 69.2777 18.3825 69.6461 18.7554C70.0145 19.1288 70.3062 19.5618 70.52 20.0563C70.7329 20.55 70.8394 21.0765 70.8394 21.6363C70.8394 22.1961 70.7329 22.7234 70.52 23.2166ZM71.3632 17.0176C70.0749 15.7419 68.538 15.1049 66.7531 15.1049C64.9521 15.1049 63.4156 15.7419 62.1431 17.0176C60.8701 18.2933 60.2335 19.8323 60.2335 21.6363C60.2335 23.4402 60.8701 24.9801 62.1431 26.2554C63.4156 27.5307 64.9521 28.1677 66.7531 28.1677C68.538 28.1677 70.0749 27.5307 71.3632 26.2554C72.6361 24.9954 73.2732 23.4556 73.2732 21.6363C73.2647 20.7343 73.1037 19.8989 72.7899 19.1288C72.4756 18.359 71.9999 17.6555 71.3632 17.0176Z" fill="white"/>
<path fill-rule="evenodd" clip-rule="evenodd" d="M98.3183 16.3174C98.3183 16.154 98.2859 15.9991 98.2199 15.851C98.1535 15.7034 98.0666 15.5733 97.9576 15.4602C97.849 15.348 97.7208 15.2605 97.5735 15.1974C97.4261 15.1355 97.2664 15.1048 97.0961 15.1048C96.8554 15.1048 96.6382 15.1671 96.4445 15.2912L89.4827 19.8284V10.7306C89.4827 10.3884 89.3639 10.0991 89.1271 9.86149C88.8908 9.62469 88.6054 9.50565 88.2711 9.50565C87.9296 9.50565 87.6408 9.62469 87.4045 9.86149C87.1677 10.0991 87.0489 10.3884 87.0489 10.7306V26.9431C87.0489 27.2776 87.1677 27.5656 87.4045 27.8062C87.6408 28.0473 87.9296 28.1676 88.2711 28.1676C88.6054 28.1676 88.8908 28.0473 89.1271 27.8062C89.3639 27.5656 89.4827 27.2776 89.4827 26.9431V22.7323L90.903 21.8L96.2818 27.8532C96.4986 28.0631 96.7703 28.1676 97.0961 28.1676C97.2664 28.1676 97.4261 28.1369 97.5735 28.0746C97.7208 28.0127 97.849 27.9253 97.9576 27.8122C98.0666 27.7 98.1535 27.569 98.2199 27.4214C98.2859 27.2746 98.3183 27.1176 98.3183 26.955C98.3183 26.6367 98.2055 26.3526 97.981 26.103L92.9749 20.4582L97.8528 17.2855C98.1633 17.0751 98.3183 16.7534 98.3183 16.3174Z" fill="white"/>
<path fill-rule="evenodd" clip-rule="evenodd" d="M78.1209 18.7379C78.4931 18.3689 78.9279 18.077 79.4249 17.8633C79.9219 17.6495 80.4534 17.5424 81.0202 17.5424C81.5321 17.5424 82.0048 17.6282 82.4405 17.7988C82.874 17.9704 83.2901 18.2234 83.6858 18.557C83.9187 18.7435 84.1828 18.8369 84.4775 18.8369C84.8267 18.8369 85.1154 18.7204 85.3445 18.487C85.5732 18.2537 85.6886 17.9618 85.6886 17.6124C85.6886 17.2472 85.5485 16.94 85.2692 16.6908C84.0737 15.6335 82.6577 15.1049 81.0202 15.1049C79.2188 15.1049 77.6818 15.7419 76.4097 17.0176C75.1368 18.2933 74.5001 19.8323 74.5001 21.6363C74.5001 23.4402 75.1368 24.9801 76.4097 26.2554C77.6818 27.5307 79.2188 28.1677 81.0202 28.1677C82.6496 28.1677 84.0661 27.639 85.2692 26.5818C85.5251 26.3249 85.6533 26.0262 85.6533 25.6836C85.6533 25.3338 85.5383 25.0441 85.31 24.8145C85.0809 24.5854 84.7913 24.4702 84.4425 24.4702C84.1478 24.4783 83.8915 24.5636 83.6738 24.727C83.2863 25.0616 82.874 25.3124 82.4405 25.4797C82.0048 25.6465 81.5321 25.7306 81.0202 25.7306C80.4534 25.7306 79.9219 25.623 79.4249 25.4097C78.9279 25.196 78.4931 24.9041 78.1209 24.535C77.7478 24.1656 77.4553 23.7321 77.2419 23.2341C77.0285 22.7366 76.9216 22.2042 76.9216 21.6363C76.9216 21.0692 77.0285 20.5359 77.2419 20.038C77.4553 19.5409 77.7478 19.1074 78.1209 18.7379Z" fill="white"/>
<path fill-rule="evenodd" clip-rule="evenodd" d="M122.501 15.9206C122.284 15.7112 122.01 15.546 121.681 15.4249C121.351 15.305 120.99 15.2209 120.598 15.174C120.206 15.1275 119.838 15.1049 119.498 15.1049C118.721 15.1049 117.991 15.229 117.309 15.4778C116.626 15.7269 115.994 16.0841 115.411 16.5513V16.3174C115.411 15.9838 115.293 15.6975 115.056 15.4603C114.82 15.223 114.533 15.1049 114.2 15.1049C113.858 15.1049 113.57 15.223 113.333 15.4603C113.096 15.6975 112.978 15.9838 112.978 16.3174V26.9551C112.978 27.2896 113.096 27.575 113.333 27.8123C113.57 28.0495 113.858 28.1677 114.2 28.1677C114.533 28.1677 114.82 28.0495 115.056 27.8123C115.293 27.575 115.411 27.2896 115.411 26.9551V21.6363C115.411 21.0692 115.518 20.5359 115.731 20.038C115.945 19.5409 116.236 19.1074 116.604 18.7379C116.973 18.3689 117.405 18.077 117.902 17.8633C118.399 17.6495 118.931 17.5424 119.498 17.5424C120.072 17.5424 120.603 17.6397 121.093 17.8342C121.286 17.9196 121.457 17.9618 121.605 17.9618C121.775 17.9618 121.934 17.9315 122.082 17.8688C122.229 17.8065 122.357 17.7195 122.466 17.6064C122.575 17.4942 122.662 17.3636 122.728 17.2152C122.794 17.0684 122.827 16.9088 122.827 16.7373C122.827 16.4032 122.718 16.1306 122.501 15.9206Z" fill="white"/>
<path fill-rule="evenodd" clip-rule="evenodd" d="M101.222 20.4386C101.346 20.0115 101.537 19.6211 101.792 19.2666C102.049 18.9133 102.351 18.6095 102.701 18.3565C103.05 18.1047 103.434 17.908 103.853 17.7672C104.272 17.6282 104.703 17.5582 105.145 17.5582C105.588 17.5582 106.016 17.6282 106.431 17.7672C106.847 17.908 107.227 18.1047 107.572 18.3565C107.917 18.6095 108.221 18.9133 108.48 19.2666C108.741 19.6211 108.937 20.0115 109.069 20.4386H101.222ZM111.187 19.1381C110.869 18.365 110.391 17.6627 109.756 17.033C108.466 15.7576 106.93 15.1202 105.145 15.1202C103.344 15.1202 101.807 15.7576 100.535 17.033C99.2616 18.3091 98.6254 19.8477 98.6254 21.6521C98.6254 23.456 99.2616 24.9958 100.535 26.2711C101.807 27.546 103.344 28.1839 105.145 28.1839C106.783 28.1839 108.203 27.6548 109.406 26.5975C109.423 26.5822 109.45 26.5574 109.454 26.5532C109.56 26.4649 109.649 26.3701 109.729 26.2511C110.117 25.6704 109.978 24.8956 109.419 24.5201C108.947 24.2031 108.33 24.2756 107.914 24.6541C107.875 24.6899 107.761 24.7966 107.742 24.8128C107.736 24.8175 107.73 24.8226 107.725 24.8273C107.364 25.1311 106.973 25.3598 106.554 25.5125C106.126 25.6683 105.658 25.7463 105.145 25.7463C104.694 25.7463 104.262 25.6764 103.847 25.5356C103.432 25.3956 103.051 25.1998 102.706 24.9472C102.361 24.6946 102.06 24.3917 101.804 24.0371C101.548 23.6838 101.353 23.293 101.222 22.8651H110.442C110.783 22.8651 111.072 22.7503 111.309 22.5207C111.546 22.2916 111.665 22.0015 111.665 21.6521C111.665 20.7505 111.505 19.9125 111.187 19.1381Z" fill="white"/>
<path fill-rule="evenodd" clip-rule="evenodd" d="M118.347 27.9125C117.969 27.9125 117.693 27.6155 117.693 27.2417C117.693 26.8735 117.969 26.5719 118.342 26.5719C118.715 26.5719 118.985 26.8735 118.985 27.2473C118.985 27.6155 118.715 27.9125 118.347 27.9125ZM118.342 26.4029C117.862 26.4029 117.479 26.7767 117.479 27.2417C117.479 27.7183 117.862 28.0917 118.342 28.0917C118.827 28.0917 119.2 27.7183 119.2 27.2417C119.2 26.7767 118.827 26.4029 118.342 26.4029Z" fill="white"/>
<path fill-rule="evenodd" clip-rule="evenodd" d="M118.306 27.2064H118.214V26.9657C118.235 26.9606 118.27 26.9559 118.322 26.9559C118.444 26.9559 118.5 27.0071 118.5 27.0835C118.5 27.1705 118.414 27.2064 118.306 27.2064ZM118.536 27.2678V27.2576C118.638 27.2269 118.709 27.1552 118.709 27.063C118.709 26.9811 118.674 26.9145 118.628 26.8791C118.566 26.8433 118.495 26.8173 118.337 26.8173C118.199 26.8173 118.092 26.8279 118.015 26.8433V27.6825H118.209V27.3446H118.301C118.408 27.3446 118.459 27.3852 118.474 27.4773C118.5 27.575 118.516 27.6514 118.541 27.6825H118.751C118.73 27.6514 118.715 27.6002 118.689 27.4722C118.664 27.36 118.617 27.2985 118.536 27.2678Z" fill="white"/>
<path fill-rule="evenodd" clip-rule="evenodd" d="M43.7003 12.2449C43.5806 12.148 42.4622 11.3032 40.1059 11.3032C39.5165 11.3032 38.8947 11.357 38.2487 11.4632C37.7934 8.33105 35.2126 6.80529 35.0925 6.73617L34.4593 6.37009L34.0419 6.97211C34.0108 7.01691 33.2775 8.08614 32.9176 9.60806C32.4951 11.3954 32.7515 13.0734 33.6582 14.51C32.5633 15.1202 30.8155 15.2793 30.4527 15.284H1.38181C0.623332 15.284 0.00368873 15.9014 0.000707632 16.6604C-0.0107909 19.339 0.429986 21.9276 1.27492 24.1459C2.27699 26.7767 3.76754 28.7133 5.70441 29.9025C7.87678 31.2354 11.4136 31.9999 15.4075 31.9999C17.2762 31.9999 19.139 31.831 20.7939 31.511C23.4019 31.0075 25.7698 30.1461 27.831 28.9518C29.6286 27.9103 31.2431 26.5856 32.6297 25.0154C34.9333 22.4051 36.3054 19.4897 37.3258 16.9096C37.4634 16.9152 37.5988 16.9177 37.7325 16.9177C40.2541 16.9177 41.8047 15.9082 42.6611 15.0609C43.59 14.1418 43.9204 13.2258 43.9549 13.1242L44.1355 12.5947L43.7003 12.2449Z" fill="white"/>
<path fill-rule="evenodd" clip-rule="evenodd" d="M4.07623 14.4324H7.97211C8.15992 14.4324 8.3128 14.2796 8.3128 14.0906V10.6137C8.3128 10.4247 8.15992 10.2719 7.97211 10.2719H4.07623C3.888 10.2719 3.73511 10.4247 3.73511 10.6137V14.0906C3.73511 14.2796 3.888 14.4324 4.07623 14.4324Z" fill="white"/>
<path fill-rule="evenodd" clip-rule="evenodd" d="M9.44488 14.4324H13.3399C13.5286 14.4324 13.681 14.2796 13.681 14.0906V10.6137C13.681 10.4247 13.5286 10.2719 13.3399 10.2719H9.44488C9.25622 10.2719 9.10376 10.4247 9.10376 10.6137V14.0906C9.10376 14.2796 9.25622 14.4324 9.44488 14.4324Z" fill="white"/>
<path fill-rule="evenodd" clip-rule="evenodd" d="M14.8955 14.4324H18.791C18.9792 14.4324 19.1321 14.2796 19.1321 14.0906V10.6137C19.1321 10.4247 18.9792 10.2719 18.791 10.2719H14.8955C14.7073 10.2719 14.5548 10.4247 14.5548 10.6137V14.0906C14.5548 14.2796 14.7073 14.4324 14.8955 14.4324Z" fill="white"/>
<path fill-rule="evenodd" clip-rule="evenodd" d="M20.2816 14.4324H24.177C24.3657 14.4324 24.5181 14.2796 24.5181 14.0906V10.6137C24.5181 10.4247 24.3657 10.2719 24.177 10.2719H20.2816C20.0937 10.2719 19.9404 10.4247 19.9404 10.6137V14.0906C19.9404 14.2796 20.0937 14.4324 20.2816 14.4324Z" fill="white"/>
<path fill-rule="evenodd" clip-rule="evenodd" d="M9.44488 9.42932H13.3399C13.5286 9.42932 13.681 9.27657 13.681 9.08798V5.61065C13.681 5.42206 13.5286 5.26889 13.3399 5.26889H9.44488C9.25622 5.26889 9.10376 5.42206 9.10376 5.61065V9.08798C9.10376 9.27657 9.25622 9.42932 9.44488 9.42932Z" fill="white"/>
<path fill-rule="evenodd" clip-rule="evenodd" d="M14.8955 9.42932H18.791C18.9792 9.42932 19.1321 9.27657 19.1321 9.08798V5.61065C19.1321 5.42206 18.9792 5.26889 18.791 5.26889H14.8955C14.7073 5.26889 14.5548 5.42206 14.5548 5.61065V9.08798C14.5548 9.27657 14.7073 9.42932 14.8955 9.42932Z" fill="white"/>
<path fill-rule="evenodd" clip-rule="evenodd" d="M20.2816 9.42932H24.177C24.3657 9.42932 24.5181 9.27657 24.5181 9.08798V5.61065C24.5181 5.42206 24.3657 5.26889 24.177 5.26889H20.2816C20.0937 5.26889 19.9404 5.42206 19.9404 5.61065V9.08798C19.9404 9.27657 20.0937 9.42932 20.2816 9.42932Z" fill="white"/>
<path fill-rule="evenodd" clip-rule="evenodd" d="M20.2816 4.42663H24.177C24.3657 4.42663 24.5181 4.27346 24.5181 4.08487V0.607965C24.5181 0.418951 24.3657 0.266205 24.177 0.266205H20.2816C20.0937 0.266205 19.9404 0.418951 19.9404 0.607965V4.08487C19.9404 4.27346 20.0937 4.42663 20.2816 4.42663Z" fill="white"/>
<path fill-rule="evenodd" clip-rule="evenodd" d="M25.7153 14.4324H29.6103C29.799 14.4324 29.9514 14.2796 29.9514 14.0906V10.6137C29.9514 10.4247 29.799 10.2719 29.6103 10.2719H25.7153C25.5266 10.2719 25.3741 10.4247 25.3741 10.6137V14.0906C25.3741 14.2796 25.5266 14.4324 25.7153 14.4324Z" fill="white"/>
</g>
<path d="M139.265 22.4375C139.265 21.1406 138.808 20.0352 137.894 19.1211C136.979 18.207 135.874 17.75 134.577 17.75C133.28 17.75 132.175 18.207 131.261 19.1211C130.347 20.0352 129.89 21.1406 129.89 22.4375C129.89 23.7344 130.347 24.8398 131.261 25.7539C132.175 26.668 133.28 27.125 134.577 27.125C135.874 27.125 136.979 26.668 137.894 25.7539C138.808 24.8398 139.265 23.7344 139.265 22.4375ZM139.265 11.1641C139.265 10.9062 139.354 10.6875 139.534 10.5078C139.722 10.3203 139.944 10.2266 140.202 10.2266C140.46 10.2266 140.679 10.3203 140.858 10.5078C141.046 10.6875 141.14 10.9062 141.14 11.1641V22.4375C141.14 24.25 140.499 25.7969 139.218 27.0781C137.937 28.3594 136.39 29 134.577 29C132.765 29 131.218 28.3594 129.937 27.0781C128.655 25.7969 128.015 24.25 128.015 22.4375C128.015 20.625 128.655 19.0781 129.937 17.7969C131.218 16.5156 132.765 15.875 134.577 15.875C136.39 15.875 137.937 16.5156 139.218 17.7969C139.233 17.8125 139.249 17.8281 139.265 17.8438V11.1641ZM154.64 22.4375C154.64 24.25 153.999 25.7969 152.718 27.0781C151.437 28.3594 149.89 29 148.077 29C146.265 29 144.718 28.3594 143.437 27.0781C142.155 25.7969 141.515 24.25 141.515 22.4375C141.515 20.625 142.155 19.0781 143.437 17.7969C144.718 16.5156 146.265 15.875 148.077 15.875C149.89 15.875 151.437 16.5156 152.718 17.7969C153.999 19.0781 154.64 20.625 154.64 22.4375ZM148.077 17.75C146.78 17.75 145.675 18.207 144.761 19.1211C143.847 20.0352 143.39 21.1406 143.39 22.4375C143.39 23.7344 143.847 24.8398 144.761 25.7539C145.675 26.668 146.78 27.125 148.077 27.125C149.374 27.125 150.479 26.668 151.394 25.7539C152.308 24.8398 152.765 23.7344 152.765 22.4375C152.765 21.1406 152.308 20.0352 151.394 19.1211C150.479 18.207 149.374 17.75 148.077 17.75ZM165.21 25.7891C165.468 25.7891 165.687 25.8828 165.866 26.0703C166.054 26.25 166.147 26.4688 166.147 26.7266C166.147 26.9844 166.05 27.2148 165.854 27.418C164.644 28.4727 163.218 29 161.577 29C159.765 29 158.218 28.3594 156.937 27.0781C155.655 25.7969 155.015 24.25 155.015 22.4375C155.015 20.625 155.655 19.0781 156.937 17.7969C158.218 16.5156 159.765 15.875 161.577 15.875C163.218 15.875 164.644 16.4023 165.854 17.457C166.073 17.6523 166.183 17.8945 166.183 18.1836C166.183 18.4414 166.089 18.6641 165.901 18.8516C165.722 19.0312 165.503 19.1211 165.245 19.1211C165.019 19.1211 164.819 19.0508 164.647 18.9102C163.772 18.1367 162.749 17.75 161.577 17.75C160.28 17.75 159.175 18.207 158.261 19.1211C157.347 20.0352 156.89 21.1406 156.89 22.4375C156.89 23.7344 157.347 24.8398 158.261 25.7539C159.175 26.668 160.28 27.125 161.577 27.125C162.749 27.125 163.769 26.7422 164.636 25.9766C164.8 25.8516 164.991 25.7891 165.21 25.7891ZM168.96 22.4375C168.249 22.1719 167.753 21.8945 167.472 21.6055C166.917 21.0586 166.64 20.3984 166.64 19.625C166.64 18.8516 166.929 18.1758 167.507 17.5977C168.632 16.4492 170.101 15.875 171.913 15.875C173.874 15.875 175.554 16.6602 176.952 18.2305C177.077 18.3789 177.136 18.5625 177.128 18.7812C177.128 19.0391 177.034 19.2617 176.847 19.4492C176.667 19.6289 176.448 19.7188 176.19 19.7188C175.933 19.7188 175.726 19.6367 175.569 19.4727C175.413 19.3086 175.3 19.1914 175.229 19.1211C174.315 18.207 173.21 17.75 171.913 17.75C170.616 17.75 169.581 18.1562 168.808 18.9688C168.62 19.1953 168.526 19.4648 168.526 19.7773C168.55 20.1445 168.741 20.3945 169.101 20.5273L174.866 22.4375C175.577 22.7031 176.073 22.9805 176.354 23.2695C176.909 23.8164 177.187 24.4766 177.187 25.25C177.187 26.0234 176.897 26.6992 176.319 27.2773C175.194 28.4258 173.726 29 171.913 29C169.944 29 168.265 28.2148 166.874 26.6445C166.757 26.4805 166.698 26.2969 166.698 26.0938C166.698 25.8359 166.788 25.6172 166.968 25.4375C167.155 25.25 167.378 25.1562 167.636 25.1562C167.894 25.1562 168.101 25.2383 168.257 25.4023C168.413 25.5664 168.526 25.6836 168.597 25.7539C169.511 26.668 170.616 27.125 171.913 27.125C173.21 27.125 174.245 26.7188 175.019 25.9062C175.206 25.6797 175.3 25.4102 175.3 25.0977C175.276 24.7305 175.085 24.4805 174.726 24.3477L168.96 22.4375Z" fill="white" fill-opacity="0.6"/>
<defs>
<clipPath id="clip0_706_4146">
<rect width="123.077" height="32" fill="white" transform="translate(0.000244141)"/>
</clipPath>
</defs>
</svg>
